<?xml version="1.0" encoding="UTF-8"?>
<svg version="1.1" xmlns="http://www.w3.org/2000/svg" width="1024" height="1024">
<path d="M0 0 C7.30301672 0.21153566 10.60056167 3.05898106 15.64453125 8.08203125 C17.89818703 10.59493733 20.00605827 13.21235638 22.12649536 15.83770752 C33.78460929 29.63253467 45.05291045 42.70133733 63.81495476 44.90153122 C72.16942157 45.56303886 80.49067247 45.54408474 88.8621192 45.31718349 C93.93040697 45.20891324 98.9974945 45.27152094 104.06643677 45.30645752 C112.56352229 45.33875219 121.05090639 45.23835427 129.54589844 45.0546875 C139.29063818 44.84565332 149.01750634 44.85161809 158.76334751 44.97145534 C168.24769716 45.08288053 177.72562296 45.03935409 187.20978165 44.92868805 C191.19733968 44.88475564 195.17942416 44.89241038 199.16683578 44.94539642 C217.86337423 45.14447945 233.75320556 45.12685171 247.82826424 31.54860306 C253.18743394 26.05095975 257.95160374 20.14748792 262.64453125 14.08203125 C263.96247788 12.51056554 265.29296122 10.94940803 266.64303589 9.40545654 C267.40712926 8.52910616 267.40712926 8.52910616 268.18665886 7.63505173 C273.83531364 1.61773732 278.52581297 0.38272452 286.64453125 0.08203125 C291.30358503 0.15302839 295.93487045 0.43800022 300.58203125 0.76953125 C301.89453857 0.86202148 303.2070459 0.95451172 304.55932617 1.04980469 C353.23175844 4.66967724 398.38625957 17.02491977 434.16601562 51.65478516 C435.70297534 53.13844871 437.2595489 54.59975402 438.81640625 56.0625 C451.04150922 67.72424263 460.62745499 81.07171064 469.47241211 95.41430664 C472.07852801 99.63855082 474.75220216 103.6960024 477.76953125 107.64453125 C481.08323541 112.11562065 483.9471767 116.75672033 486.70703125 121.58203125 C487.09455566 122.23888916 487.48208008 122.89574707 487.88134766 123.57250977 C495.99596916 138.11838248 500.23431421 154.81928386 504.64453125 170.76953125 C505.20329098 172.77090061 505.76229929 174.77220059 506.3215332 176.7734375 C508.11323574 183.2048946 509.88264845 189.6423478 511.64453125 196.08203125 C511.93648376 197.14907288 512.22843628 198.2161145 512.52923584 199.31549072 C517.32759514 216.87960331 522.01670544 234.47226406 526.64453125 252.08203125 C526.81769363 252.7408857 526.99085602 253.39974014 527.16926575 254.07855988 C543.36783473 315.74013103 558.38750011 377.66134173 572.39119339 439.85804367 C573.00969964 442.60093104 573.63105783 445.34315801 574.25314331 448.0852356 C584.90613624 495.10172013 592.8801501 543.85112628 585.64453125 592.08203125 C585.515625 592.97051758 585.38671875 593.85900391 585.25390625 594.77441406 C581.57522926 619.32447372 574.50279999 640.4953516 557.64453125 659.08203125 C556.45539377 660.49732371 555.26764192 661.91378302 554.08203125 663.33203125 C542.32120028 676.56644152 525.53197689 689.01391328 507.24780273 690.24316406 C489.5897375 690.54189399 476.39622467 688.19653998 460.64453125 680.08203125 C459.64679687 679.56898438 458.6490625 679.0559375 457.62109375 678.52734375 C444.23765326 671.15728474 432.52204735 660.89993558 420.81201172 651.17578125 C415.89868359 647.09704896 410.91872654 643.11969047 405.88208008 639.19482422 C401.4232429 635.71304843 397.02696259 632.15936576 392.64453125 628.58203125 C387.68220881 624.53221058 382.69299105 620.52397931 377.64453125 616.58203125 C371.90442457 612.10003015 366.24759879 607.52246568 360.60546875 602.91796875 C356.32001507 599.42673042 352.00123672 595.98384237 347.64453125 592.58203125 C342.59605867 588.6400732 337.60731174 584.63130352 332.64453125 580.58203125 C325.37707668 574.66185497 318.08291536 568.78662486 310.64453125 563.08203125 C310.06993164 562.63698242 309.49533203 562.19193359 308.90332031 561.73339844 C286.46159347 544.47342001 263.3568964 542.92960444 235.96386719 542.93676758 C233.67281541 542.93377162 231.38176413 542.93036809 229.0907135 542.92658997 C222.89426372 542.91779063 216.69782776 542.91541358 210.50137234 542.91477418 C206.62299647 542.91406141 202.74462408 542.91192282 198.86624908 542.90927696 C186.01387545 542.90051319 173.16151291 542.89585558 160.30913672 542.89660744 C159.61818117 542.89664739 158.92722562 542.89668735 158.21533203 542.89672852 C157.1776148 542.89678984 157.1776148 542.89678984 156.11893359 542.8968524 C144.91430094 542.89725861 133.70970193 542.8876918 122.505079 542.87359015 C110.96493151 542.85918227 99.42480474 542.85250497 87.88464761 542.85318393 C81.41990668 542.85343799 74.95520387 542.85063723 68.49047089 542.84000587 C62.40664771 542.83027313 56.3228987 542.830281 50.2390728 542.83752251 C48.01722797 542.83856191 45.79537839 542.83624416 43.57354164 542.83016205 C14.20323521 542.75502445 -7.98223563 547.17234809 -31.35546875 566.08203125 C-31.98646484 566.59217773 -32.61746094 567.10232422 -33.26757812 567.62792969 C-35.9641686 569.81208811 -38.65738784 572.00026679 -41.34472656 574.19580078 C-45.62204051 577.68863367 -49.93668217 581.12587684 -54.29296875 584.51953125 C-59.55310446 588.6213059 -64.71797592 592.82781455 -69.85546875 597.08203125 C-75.54696815 601.79500557 -81.28871321 606.42655969 -87.1171875 610.96875 C-91.57636179 614.45057102 -95.97281106 618.00451197 -100.35546875 621.58203125 C-105.87880532 626.08970339 -111.44731472 630.53045892 -117.06640625 634.91796875 C-121.53984433 638.41980037 -125.95383044 641.99051365 -130.35546875 645.58203125 C-137.62209903 651.50298926 -144.92669933 657.3653691 -152.35546875 663.08203125 C-152.95182129 663.54351563 -153.54817383 664.005 -154.16259766 664.48046875 C-176.50718013 681.67683092 -198.63233291 692.1228719 -227.35546875 690.08203125 C-250.5019205 686.24344392 -270.69086685 667.13366256 -284.04296875 648.6015625 C-299.91622944 625.24802771 -304.43907041 594.16642987 -304.55859375 566.49609375 C-304.56565338 565.40941406 -304.57271301 564.32273437 -304.57998657 563.203125 C-304.71706386 535.89090225 -303.94804876 509.85967513 -298.7265625 482.984375 C-298.53480155 481.99555423 -298.53480155 481.99555423 -298.33916664 480.98675728 C-295.23677051 465.04578493 -291.69581268 449.20718026 -288.08072281 433.37585831 C-287.53174952 430.97037093 -286.98449945 428.56449656 -286.43759155 426.15853882 C-278.90350782 393.03558691 -270.96665504 360.01506028 -262.82415676 327.03691673 C-261.73065272 322.60708648 -260.64229347 318.17602322 -259.55712891 313.74414062 C-249.91368495 274.37561948 -239.57718329 235.19936039 -228.90565491 196.09856415 C-228.37038262 194.13669331 -227.83592677 192.17460165 -227.30163574 190.21246338 C-225.41980877 183.30967366 -223.51986303 176.41240721 -221.58813477 169.52340698 C-221.0309435 167.53130547 -220.47812034 165.53797517 -219.93041992 163.54324341 C-213.50252726 140.19691576 -204.37711479 119.17285154 -189.24853516 100.15869141 C-185.65182441 95.60024844 -182.46875773 90.8152412 -179.29296875 85.95703125 C-174.69748759 78.96463431 -169.8962774 72.36927009 -164.35546875 66.08203125 C-163.51628906 65.12167969 -162.67710937 64.16132813 -161.8125 63.171875 C-125.29004189 21.9981921 -76.33209178 5.07297363 -22.35546875 1.08203125 C-21.13561279 0.98946045 -21.13561279 0.98946045 -19.89111328 0.89501953 C-13.26171867 0.41299798 -6.64378812 0.1624209 0 0 Z " fill="#5B3F90" transform="translate(368.35546875,269.91796875)"/>
<path d="M0 0 C2.49961213 2.19284155 4.86479973 4.46101768 7.203125 6.82421875 C7.82703125 7.41460937 8.4509375 8.005 9.09375 8.61328125 C13.21944307 12.83189533 15.86685578 17.60522009 18.515625 22.82421875 C18.85352051 23.48881104 19.19141602 24.15340332 19.53955078 24.83813477 C26.49680589 39.16655763 26.17083007 56.52466526 21.44921875 71.5390625 C14.75786202 89.17991206 1.44308088 101.88892999 -15.5859375 109.5625 C-29.14845297 114.89180961 -47.40252639 115.34080792 -61.15625 110.08203125 C-65.61827935 107.95662674 -69.74239856 105.65507669 -73.796875 102.82421875 C-74.61800781 102.2725 -75.43914062 101.72078125 -76.28515625 101.15234375 C-89.29186309 91.6855649 -97.94124572 76.57186781 -100.796875 60.82421875 C-102.66318818 40.77573999 -98.46070654 23.59339117 -85.55859375 7.80859375 C-64.11337356 -16.34699795 -25.41952428 -19.77468579 0 0 Z " fill="#7B79D2" transform="translate(349.796875,445.17578125)"/>
<path d="M0 0 C13.3932497 11.29034617 21.83638323 24.67445781 24.5625 42.16015625 C25.90042246 60.16727659 21.59268352 77.04871063 9.65185547 90.97753906 C4.57949983 96.61348977 -0.9260017 101.2554571 -7.4375 105.16015625 C-8.05625 105.54558594 -8.675 105.93101562 -9.3125 106.328125 C-23.54599226 114.33446439 -40.87974609 115.11692189 -56.4375 111.16015625 C-73.23551982 105.80646477 -86.52917101 94.21857778 -94.7109375 78.73046875 C-103.20525772 61.16529074 -103.21550544 43.49052743 -96.875 25.16015625 C-90.15937798 9.71931319 -78.22284063 -1.28125707 -63.11328125 -8.3984375 C-41.94908743 -16.69768035 -18.02721952 -14.01825937 0 0 Z " fill="#7D7BD4" transform="translate(657.4375,606.83984375)"/>
<path d="M0 0 C4.68318752 2.63487489 7.68781573 6.34475103 9.6875 11.3125 C9.94287109 14.48535156 9.94287109 14.48535156 9.9609375 18.203125 C9.98123846 19.56641428 10.00208946 20.92969546 10.0234375 22.29296875 C10.04594043 24.42340951 10.06247522 26.55352826 10.06835938 28.68408203 C9.79048293 40.24522612 9.79048293 40.24522612 14.6875 50.3125 C21.44019445 56.29805806 30.70325542 54.84088505 39.22387695 54.80322266 C53.9227015 54.78599276 53.9227015 54.78599276 60.6875 59.3125 C65.92552942 64.82621518 67.10804749 69.16751337 66.9296875 76.62890625 C66.43253642 82.13766096 64.13461593 85.08317259 60.125 88.625 C55.98894263 92.01389862 53.57852232 92.45102426 48.17578125 92.55859375 C46.20254883 92.60790039 46.20254883 92.60790039 44.18945312 92.65820312 C42.1007139 92.70539108 40.01199428 92.749773 37.9230957 92.78930664 C35.90288593 92.82940827 33.88319614 92.88088239 31.86328125 92.93359375 C30.65583252 92.9586499 29.44838379 92.98370605 28.2043457 93.00952148 C23.68029904 93.39927101 19.32472795 93.98836743 15.7265625 96.8984375 C15.25992188 97.48882813 14.79328125 98.07921875 14.3125 98.6875 C13.83039063 99.27273438 13.34828125 99.85796875 12.8515625 100.4609375 C10.37048653 104.40734693 10.54353228 108.48784024 10.4765625 113.0546875 C10.44820313 114.36824219 10.41984375 115.68179688 10.390625 117.03515625 C10.34943504 119.11083611 10.31251546 121.18628315 10.28613281 123.26220703 C10.25836147 125.27658673 10.21140467 127.29067272 10.1640625 129.3046875 C10.14424316 130.50464355 10.12442383 131.70459961 10.10400391 132.94091797 C9.43648373 138.34446644 7.36019589 142.23135491 3.125 145.625 C2.52558594 146.11613281 1.92617188 146.60726562 1.30859375 147.11328125 C-3.49183179 150.66443942 -9.60257712 149.80689576 -15.3125 149.3125 C-20.23515695 147.0269807 -23.12299249 143.59555294 -26.3125 139.3125 C-27.46383286 135.85850143 -27.47204391 133.0917983 -27.5234375 129.44921875 C-27.55151373 128.07355597 -27.58017824 126.69790508 -27.609375 125.32226562 C-27.65054261 123.16317173 -27.68744741 121.00429823 -27.71386719 118.8449707 C-27.74163801 116.75425837 -27.78750989 114.66454151 -27.8359375 112.57421875 C-27.8656665 110.70189575 -27.8656665 110.70189575 -27.89599609 108.79174805 C-28.48946374 103.83424075 -30.25131153 99.68086582 -34.1875 96.5 C-39.03705602 93.10531078 -43.33447363 93.19135587 -49.15234375 93.13671875 C-50.46267578 93.11287109 -51.77300781 93.08902344 -53.12304688 93.06445312 C-55.18785427 93.02936489 -57.25206936 92.99998656 -59.31713867 92.98657227 C-61.32492266 92.97101547 -63.33244758 92.92913548 -65.33984375 92.88671875 C-66.53343506 92.87213623 -67.72702637 92.85755371 -68.95678711 92.8425293 C-75.6440504 91.78628713 -79.46402476 87.48045246 -83.3125 82.3125 C-85.0649789 77.05506329 -85.41758056 71.18952007 -83.40625 65.953125 C-80.24697281 60.56615235 -76.29652926 57.30717642 -70.3125 55.3125 C-68.03812243 55.20759262 -65.76107768 55.15730564 -63.484375 55.13671875 C-62.11326608 55.11350961 -60.7421723 55.08939183 -59.37109375 55.06445312 C-57.22076433 55.02945459 -55.07098876 55.00005321 -52.92041016 54.98657227 C-41.94777136 55.01949738 -41.94777136 55.01949738 -32.3125 50.3125 C-31.3225 49.9825 -30.3325 49.6525 -29.3125 49.3125 C-27.77412689 45.70673051 -28.17755381 41.62420675 -28.171875 37.765625 C-28.15354125 36.26560989 -28.13397042 34.76560948 -28.11328125 33.265625 C-28.08439747 30.91771623 -28.06250172 28.57075388 -28.06201172 26.22265625 C-28.03670861 9.07438128 -28.03670861 9.07438128 -22.3125 3.3125 C-15.48612497 -2.01207253 -8.05007474 -3.73861149 0 0 Z " fill="#827AE4" transform="translate(431.3125,586.6875)"/>
<path d="M0 0 C23.87487067 16.86843514 43.96651835 38.20694275 58.5625 63.5625 C57.5725 64.0575 57.5725 64.0575 56.5625 64.5625 C56.17320312 64.10101563 55.78390625 63.63953125 55.3828125 63.1640625 C29.72898548 33.25430104 -6.33939222 15.08549853 -45.4375 10.5625 C-54.91646367 9.90807176 -64.42172391 9.95220384 -73.91894865 9.95499516 C-77.50371238 9.95180955 -81.08832315 9.92607779 -84.67300415 9.90301514 C-91.42255313 9.86287482 -98.17200659 9.84221484 -104.92165625 9.82904124 C-112.62222523 9.8130266 -120.32263486 9.77455269 -128.02311015 9.73444796 C-143.82785902 9.65262536 -159.63257534 9.59817596 -175.4375 9.5625 C-174.49054033 8.44905178 -173.54233446 7.33666336 -172.59361267 6.22471619 C-171.80176779 5.29535201 -171.80176779 5.29535201 -170.99392605 4.34721279 C-168.93017098 1.98075917 -166.7398547 -0.22991718 -164.50390625 -2.43359375 C-163.60736328 -3.32240234 -162.71082031 -4.21121094 -161.78710938 -5.12695312 C-159.93297008 -6.95510589 -158.07880353 -8.783231 -156.22460938 -10.61132812 C-151.60853852 -15.18763383 -147.12361819 -19.77921505 -142.95751953 -24.77197266 C-116.59033511 -53.6632242 -26.96904819 -18.40848286 0 0 Z " fill="#542154" transform="translate(779.4375,302.4375)"/>
<path d="M0 0 C4.87852876 0.14130911 7.81724857 0.80453146 11.4453125 4.15283203 C12.13536377 4.78594299 12.82541504 5.41905396 13.53637695 6.0713501 C16.9470857 9.32436047 20.31665622 12.61144519 23.64453125 15.94921875 C24.36568115 16.66941193 25.08683105 17.3896051 25.82983398 18.13162231 C27.33683982 19.63795311 28.84260559 21.14552548 30.34716797 22.65429688 C32.66259275 24.97513497 34.98338158 27.29051454 37.3046875 29.60546875 C38.77245665 31.07389773 40.2399161 32.54263635 41.70703125 34.01171875 C42.40376953 34.7064328 43.10050781 35.40114685 43.81835938 36.11691284 C44.45322266 36.75492828 45.08808594 37.39294373 45.7421875 38.05029297 C46.30429932 38.61320038 46.86641113 39.17610779 47.44555664 39.756073 C48.64453125 41.08203125 48.64453125 41.08203125 48.64453125 42.08203125 C47.99813564 42.0844196 47.35174004 42.08680796 46.68575668 42.08926868 C30.8644721 42.14873462 15.04335839 42.22448188 -0.77775955 42.31774616 C-8.42913677 42.36246893 -16.08046987 42.40193576 -23.73193359 42.4284668 C-30.41085689 42.45163955 -37.08963776 42.48524663 -43.76844764 42.53073281 C-47.29585011 42.5544091 -50.82311382 42.5733034 -54.35059357 42.57964516 C-73.31642993 42.61815809 -92.24550953 42.90726877 -110.48046875 48.76953125 C-111.69984131 49.14972412 -111.69984131 49.14972412 -112.94384766 49.53759766 C-140.15647564 58.32385581 -162.45572181 73.68201134 -182.35546875 94.08203125 C-182.68546875 93.42203125 -183.01546875 92.76203125 -183.35546875 92.08203125 C-156.09099726 49.90463381 -118.81684729 19.71582703 -69.35546875 8.08203125 C-53.84112256 4.78497984 -38.17745455 2.25188275 -22.35546875 1.08203125 C-21.13561279 0.98946045 -21.13561279 0.98946045 -19.89111328 0.89501953 C-13.26171867 0.41299798 -6.64378812 0.1624209 0 0 Z " fill="#501951" transform="translate(368.35546875,269.91796875)"/>
<path d="M0 0 C8.30633519 6.86937425 13.63231563 16.81117757 15.0390625 27.44140625 C15.55234668 38.66612072 11.82241036 48.81000293 4.57421875 57.37890625 C-3.47280442 65.36142423 -13.73711461 69.33659727 -25 69.625 C-35.51154862 69.49602394 -43.84212661 65.54690104 -51.375 58.3125 C-60.03841347 48.78948714 -62.82608189 39.83227523 -62.71875 27.01953125 C-61.81469411 17.27011034 -56.72984917 8.19085835 -49.53125 1.6328125 C-34.47493961 -10.37638745 -16.00704142 -10.84647015 0 0 Z " fill="#33A4F5" transform="translate(679.375,465.6875)"/>
<path d="M0 0 C9.25604949 6.60963755 16.73450184 15.65378606 19 27 C20.355416 37.94372917 17.26255746 49.11364332 10.75390625 58.00390625 C3.33122018 66.4515512 -6.55503787 71.26197322 -17.7265625 72.23828125 C-28.38115258 72.51110768 -36.71332162 69.86470215 -44.9296875 62.98828125 C-53.81747703 54.45264942 -58.04995006 45.65234711 -58.3125 33.3125 C-58.25025611 26.68698338 -57.15587969 21.80052653 -54 16 C-53.57589844 15.21882813 -53.15179687 14.43765625 -52.71484375 13.6328125 C-47.06796963 4.28951661 -38.44952105 -1.41626216 -28.109375 -4.578125 C-18.11998107 -6.57600379 -8.87485193 -4.83161355 0 0 Z " fill="#F32E57" transform="translate(818,463)"/>
<path d="M0 0 C10.18254796 7.33701401 15.75210281 15.68843999 18 28 C19.2759682 37.8342915 16.62500458 47.9940817 10.6875 55.9375 C9.48983978 57.31961 8.26193214 58.67631373 7 60 C6.21496094 60.84498047 6.21496094 60.84498047 5.4140625 61.70703125 C-2.00109584 68.8509033 -11.04569643 71.48236511 -21.125 71.5625 C-32.41197523 71.34438856 -39.51529676 68.31313372 -47.73828125 60.42578125 C-56.56384198 50.96002441 -59.72488423 41.68286917 -59.40234375 28.78125 C-58.26540912 18.09627215 -52.92299993 10.04545247 -45 3 C-31.35135148 -6.90760329 -14.84863559 -8.37915132 0 0 Z " fill="#38EB96" transform="translate(749,535)"/>
<path d="M0 0 C10.18254796 7.33701401 15.75210281 15.68843999 18 28 C19.22585945 37.44808744 16.77684215 47.5830586 11.25 55.375 C10.20160808 56.61377155 9.11726712 57.82297208 8 59 C7.13761719 59.92232422 7.13761719 59.92232422 6.2578125 60.86328125 C-2.31290637 69.1672765 -11.91414918 71.69766048 -23.54931641 71.52807617 C-29.38638148 71.26739292 -34.04058317 70.21361315 -39 67 C-40.03125 66.401875 -41.0625 65.80375 -42.125 65.1875 C-50.98334291 58.44745648 -55.92435084 50.73755392 -59 40 C-60.08641056 28.88192824 -58.3281917 19.30211216 -51.796875 10.16796875 C-38.59919811 -5.75531532 -18.37339599 -10.36818934 0 0 Z " fill="#F4C75E" transform="translate(749,392)"/>
<path d="M0 0 C0.515625 0.268125 1.03125 0.53625 1.5625 0.8125 C2.366875 1.204375 3.17125 1.59625 4 2 C4.90621094 2.51949219 5.81242187 3.03898438 6.74609375 3.57421875 C12.6354042 6.08593795 19.23805147 5.18729657 25.5 5 C41.28364981 4.52790679 41.28364981 4.52790679 47 8 C49.4375 10.6875 49.4375 10.6875 51 13 C50.67 13.66 50.34 14.32 50 15 C49.55269531 14.57847656 49.10539062 14.15695312 48.64453125 13.72265625 C48.03996094 13.17480469 47.43539062 12.62695312 46.8125 12.0625 C46.22082031 11.51722656 45.62914062 10.97195313 45.01953125 10.41015625 C40.89302632 7.52878627 36.03966596 7.87004348 31.16015625 7.82421875 C29.84982422 7.80037109 28.53949219 7.77652344 27.18945312 7.75195312 C25.12464573 7.71686489 23.06043064 7.68748656 20.99536133 7.67407227 C18.98757734 7.65851547 16.98005242 7.61663548 14.97265625 7.57421875 C13.77906494 7.55963623 12.58547363 7.54505371 11.35571289 7.5300293 C7.33001293 6.89417665 5.16263515 5.53039524 2 3 C1.34 2.01 0.68 1.02 0 0 Z " fill="#6D63D1" transform="translate(351,672)"/>
<path d="M0 0 C0.66 0.33 1.32 0.66 2 1 C1.50628906 1.55429687 1.01257813 2.10859375 0.50390625 2.6796875 C-0.45708984 3.76636719 -0.45708984 3.76636719 -1.4375 4.875 C-2.07558594 5.59429688 -2.71367187 6.31359375 -3.37109375 7.0546875 C-6.22263489 10.46012512 -6.09921005 12.57999345 -6.02734375 16.9609375 C-6.01509766 18.15460937 -6.00285156 19.34828125 -5.99023438 20.578125 C-5.95518581 23.10162144 -5.91614795 25.62506575 -5.87304688 28.1484375 C-5.86208984 29.3446875 -5.85113281 30.5409375 -5.83984375 31.7734375 C-5.82300537 32.87091309 -5.80616699 33.96838867 -5.78881836 35.09912109 C-5.99723717 37.9620486 -6.5128342 39.58019237 -8 42 C-8.33 42 -8.66 42 -9 42 C-9.12456859 37.73170529 -9.2147864 33.46440204 -9.2746582 29.19482422 C-9.29964236 27.74574326 -9.33364269 26.29678625 -9.37719727 24.84814453 C-9.80243152 10.33014676 -9.80243152 10.33014676 -5.30859375 4.3828125 C-3.67947274 2.66129358 -2.0425556 1.21040332 0 0 Z " fill="#7269D4" transform="translate(413,587)"/>
<path d="M0 0 C1.1859375 0.00451172 2.371875 0.00902344 3.59375 0.01367188 C6.47922228 0.02530684 9.36458213 0.0416516 12.25 0.0625 C9.45837353 2.85412647 7.64606997 2.35993395 3.73828125 2.44140625 C1.76504883 2.49264648 1.76504883 2.49264648 -0.24804688 2.54492188 C-1.64451954 2.57222036 -3.04100427 2.59890788 -4.4375 2.625 C-6.49203222 2.66919647 -8.54642346 2.71624632 -10.6007843 2.76780701 C-12.47810575 2.8140393 -14.3556323 2.85170883 -16.2331543 2.88891602 C-19.7912412 3.06453558 -23.23341497 3.50402162 -26.75 4.0625 C-26.42 3.0725 -26.09 2.0825 -25.75 1.0625 C-17.14421862 0.19230756 -8.6460185 -0.06357367 0 0 Z " fill="#6F66D2" transform="translate(475.75,676.9375)"/>
<path d="M0 0 C0.515625 0.268125 1.03125 0.53625 1.5625 0.8125 C2.366875 1.204375 3.17125 1.59625 4 2 C4.94875 2.556875 5.8975 3.11375 6.875 3.6875 C12.52308504 6.17017474 19.06042357 4.68375152 25 4 C20.71635939 7.93885978 16.71619293 7.48444036 11.14453125 7.359375 C6.87784112 6.87175327 5.09312112 5.92592538 2 3 C1.34 2.01 0.68 1.02 0 0 Z " fill="#6B61CD" transform="translate(408,729)"/>
<path d="M0 0 C0.66 0.33 1.32 0.66 2 1 C1.79375 2.299375 1.5875 3.59875 1.375 4.9375 C0.79371408 9.95407711 1.62193578 14.18246972 3 19 C0.08547448 16.33891148 -0.92895853 14.40620331 -1.1328125 10.37109375 C-1.13023437 9.40300781 -1.12765625 8.43492187 -1.125 7.4375 C-1.12757813 6.46683594 -1.13015625 5.49617187 -1.1328125 4.49609375 C-1 2 -1 2 0 0 Z " fill="#6C62CE" transform="translate(348,653)"/>
<path d="M0 0 C7.10993658 -0.7230444 7.10993658 -0.7230444 9.64453125 1.3359375 C11 3 11 3 13 6 C12.67 6.66 12.34 7.32 12 8 C11.55269531 7.57847656 11.10539062 7.15695312 10.64453125 6.72265625 C6.01600234 2.4622021 6.01600234 2.4622021 0 1 C0 0.67 0 0.34 0 0 Z " fill="#685ECA" transform="translate(389,679)"/>
<path d="M0 0 C0.66 0.33 1.32 0.66 2 1 C-0.64 3.64 -3.28 6.28 -6 9 C-6.33 8.34 -6.66 7.68 -7 7 C-2.25 1.125 -2.25 1.125 0 0 Z " fill="#756CD4" transform="translate(356,644)"/>
</svg>
